<mxfile host="65bd71144e">
    <diagram id="-i5A0cPU1cF6UtGjOKMl" name="Страница 1">
        <mxGraphModel dx="737" dy="614" grid="1" gridSize="10" guides="1" tooltips="1" connect="1" arrows="1" fold="1" page="1" pageScale="1" pageWidth="827" pageHeight="1169" math="0" shadow="0">
            <root>
                <mxCell id="0"/>
                <mxCell id="1" parent="0"/>
                <mxCell id="2" value="APP" style="rounded=0;whiteSpace=wrap;html=1;" parent="1" vertex="1">
                    <mxGeometry x="294" y="30" width="120" height="60" as="geometry"/>
                </mxCell>
                <mxCell id="3" value="" style="endArrow=classic;html=1;exitX=0;exitY=1;exitDx=0;exitDy=0;" parent="1" source="2" target="4" edge="1">
                    <mxGeometry width="50" height="50" relative="1" as="geometry">
                        <mxPoint x="350" y="340" as="sourcePoint"/>
                        <mxPoint x="110" y="180" as="targetPoint"/>
                    </mxGeometry>
                </mxCell>
                <mxCell id="4" value="InputField" style="rounded=0;whiteSpace=wrap;html=1;" parent="1" vertex="1">
                    <mxGeometry x="40" y="140" width="120" height="60" as="geometry"/>
                </mxCell>
                <mxCell id="8" value="" style="edgeStyle=none;html=1;fontSize=13;" parent="1" source="5" target="7" edge="1">
                    <mxGeometry relative="1" as="geometry"/>
                </mxCell>
                <mxCell id="5" value="ToDoList" style="rounded=0;whiteSpace=wrap;html=1;fontSize=13;" parent="1" vertex="1">
                    <mxGeometry x="540" y="130" width="140" height="70" as="geometry"/>
                </mxCell>
                <mxCell id="6" value="" style="endArrow=classic;html=1;fontSize=13;exitX=1;exitY=1;exitDx=0;exitDy=0;entryX=0;entryY=0;entryDx=0;entryDy=0;" parent="1" source="2" target="5" edge="1">
                    <mxGeometry width="50" height="50" relative="1" as="geometry">
                        <mxPoint x="350" y="340" as="sourcePoint"/>
                        <mxPoint x="400" y="290" as="targetPoint"/>
                    </mxGeometry>
                </mxCell>
                <mxCell id="7" value="ToDoItem" style="whiteSpace=wrap;html=1;fontSize=13;rounded=0;" parent="1" vertex="1">
                    <mxGeometry x="550" y="285" width="120" height="60" as="geometry"/>
                </mxCell>
                <mxCell id="9" value="REDUCER" style="shape=hexagon;perimeter=hexagonPerimeter2;whiteSpace=wrap;html=1;fixedSize=1;" vertex="1" parent="1">
                    <mxGeometry x="269" y="550" width="170" height="130" as="geometry"/>
                </mxCell>
                <mxCell id="10" value="STORE" style="rhombus;whiteSpace=wrap;html=1;" vertex="1" parent="1">
                    <mxGeometry x="520" y="480" width="200" height="130" as="geometry"/>
                </mxCell>
                <mxCell id="11" value="" style="endArrow=classic;html=1;exitX=0.5;exitY=0;exitDx=0;exitDy=0;entryX=0.535;entryY=0;entryDx=0;entryDy=0;entryPerimeter=0;" edge="1" parent="1" source="10" target="9">
                    <mxGeometry width="50" height="50" relative="1" as="geometry">
                        <mxPoint x="350" y="570" as="sourcePoint"/>
                        <mxPoint x="360" y="545" as="targetPoint"/>
                        <Array as="points">
                            <mxPoint x="620" y="440"/>
                            <mxPoint x="360" y="440"/>
                        </Array>
                    </mxGeometry>
                </mxCell>
                <mxCell id="12" value="ACTION" style="shape=parallelogram;perimeter=parallelogramPerimeter;whiteSpace=wrap;html=1;fixedSize=1;" vertex="1" parent="1">
                    <mxGeometry x="20" y="480" width="150" height="105" as="geometry"/>
                </mxCell>
                <mxCell id="13" value="" style="endArrow=classic;html=1;exitX=0.5;exitY=0;exitDx=0;exitDy=0;entryX=0.375;entryY=0;entryDx=0;entryDy=0;" edge="1" parent="1" source="12" target="9">
                    <mxGeometry width="50" height="50" relative="1" as="geometry">
                        <mxPoint x="350" y="570" as="sourcePoint"/>
                        <mxPoint x="290" y="440" as="targetPoint"/>
                        <Array as="points">
                            <mxPoint x="95" y="440"/>
                            <mxPoint x="330" y="440"/>
                        </Array>
                    </mxGeometry>
                </mxCell>
                <mxCell id="14" value="UI" style="shape=process;whiteSpace=wrap;html=1;backgroundOutline=1;" vertex="1" parent="1">
                    <mxGeometry x="120" y="770" width="460" height="60" as="geometry"/>
                </mxCell>
                <mxCell id="16" value="" style="curved=1;endArrow=classic;html=1;exitX=0.5;exitY=1;exitDx=0;exitDy=0;" edge="1" parent="1" source="10">
                    <mxGeometry width="50" height="50" relative="1" as="geometry">
                        <mxPoint x="620" y="620" as="sourcePoint"/>
                        <mxPoint x="590" y="800" as="targetPoint"/>
                        <Array as="points">
                            <mxPoint x="400" y="690"/>
                            <mxPoint x="710" y="720"/>
                        </Array>
                    </mxGeometry>
                </mxCell>
                <mxCell id="17" value="" style="shape=flexArrow;endArrow=classic;html=1;" edge="1" parent="1" target="10">
                    <mxGeometry width="50" height="50" relative="1" as="geometry">
                        <mxPoint x="430" y="650" as="sourcePoint"/>
                        <mxPoint x="400" y="640" as="targetPoint"/>
                    </mxGeometry>
                </mxCell>
                <mxCell id="18" value="" style="endArrow=classic;html=1;exitX=0;exitY=0.5;exitDx=0;exitDy=0;" edge="1" parent="1" source="14">
                    <mxGeometry width="50" height="50" relative="1" as="geometry">
                        <mxPoint x="80" y="800" as="sourcePoint"/>
                        <mxPoint x="80" y="590" as="targetPoint"/>
                        <Array as="points">
                            <mxPoint x="80" y="800"/>
                        </Array>
                    </mxGeometry>
                </mxCell>
            </root>
        </mxGraphModel>
    </diagram>
</mxfile>